<svg xmlns="http://www.w3.org/2000/svg" viewBox="0 0 188 74">
  <g fill="#FF0000">
    <path d="M41.8 0c2.5.7 3.8 1.8 4 3.3C38.1 9.8 32.2 15.6 28 20.8v.8c6.2-6.2 12.4-11.2 18.4-14.9L47 10c-3.3 1.9-6.8 4.9-10.5 9.1l-.1 2.5 2.6-1.7h3.3l2.3 2.5-.1 2.5-.9.8v.8l.7.8h.7l1.1-3.3h1.7l.7 2.5-1.1 4.2-.4 6.6h.8l4.2-.8.8.8.8-.8 1.4 4.2h1.7l.1-1.7h2.5l.5 4.2-1.8 3.3.6 2.5H52l-2.6 2.5-2.4-.8-.1 1.7h-.8l-.7-.8h-.8l-.6 5.7.2 10c-1.1 0-1.7 1.1-1.9 3.3l-.9.8h-.8l.3-4.2H40c-.3 4.4-1 6.6-2.1 6.6s-1.8-2.8-2-8.3h-.8l-.4 7.5h-.8c-1.1 0-1.5-3-1.1-9.1l-2.4-2.5 1.1-4.2.4-5.8L6 54 .4 51.5v-.8c.3-2.8.9-4.2 1.9-4.2.1-1.7-.6-2.5-2.3-2.5l1.1-4.2H.2c3.8-6.5 8.3-12 13.5-16.6v.8l-10 12.5v.8h.8c1.4-3.9 6.8-10.3 16.1-19.1v.8l-5.4 6.6h.8C22.8 17.8 31.3 9.2 41.8 0zM17.3 19.1v.8l-3.5 3.3v-.8l3.5-3.3zm7.2-7.5v.8l-6.2 5.8v-.8l6.2-5.8zm8.4 10.8c-.1 1.5-3.3 5.1-9.8 10.8l-3.6 4.2h.8c6.2-7.2 10.8-10.8 14-10.8l.1-2.5-1.5-1.7zM22.8 38.2v.8h2.5l8.3-.8.6-9.1c-6.5 6-10.3 9.1-11.4 9.1zM33.3 2.5v.8l-5.3 5 .1-.8 5.2-5zM35 29.9l-.3 5h.8l.3-5H35zm.4-6.7l-.2 3.3 2.4.8.1-1.7-2.3-2.4zM101.1 2.7c3.7 1.5 6.7 4 9.1 7.5l-.8.8c.9 3.9 2.3 5.8 4.2 5.8l.8-.8 2.5 10-.8 3.3.8 2.5c-1 9.9-6.9 21-17.4 33.2-1.7 0-2.5.6-2.5 1.7l-.8-.8h-.8l-5 1.7-5-.8h-.8v.8l6.6 1.7v.8h-5.8l-7.5-5.8v.8l1.7 4.2h-.8c-1.7-.5-3.6-3.8-5.8-10h-1V61l1.7 5c-2.1 0-4-6.9-5.8-20.8 4.5-21.6 8.4-32.4 11.6-32.4 0-1.6 1.1-3 3.3-4.2h.8c-4.4 5.4-6.6 9-6.6 10.8l5.8-7.5c0-1.7 6.1-4.8 18.3-9.2zM76.2 20.1l-5 14.1.8 2.5-.8-.8h-.8v.8l.8 4.2h.8v-2.5l-.8-.8c1.4 0 2.8-3.6 4.2-10.8 1.1 0 1.7-1.4 1.7-4.2v-2.5h-.9zm4.9 26.6v4.2l.8 8.3c14.4-13.3 21.6-25.5 21.6-36.5v-5.8l.8.8 2.5-.8V16l-.8-.8v-.8c-2.4 0-8.5 3.3-18.3 10-4.3 9.5-6.6 17-6.6 22.3zm9.2 18.2v.8h.8l3.3-.8v-.8h-1.7l-2.4.8zm14.9-45.6l-.8 9.1v.8h.8l1.7-6.6-.8-3.3h-.9zM169.8 0c2.5.7 3.8 1.8 4 3.3-7.6 6.5-13.5 12.3-17.7 17.4v.8c6.2-6.2 12.4-11.2 18.4-14.9l.6 3.3c-3.3 1.9-6.8 4.9-10.5 9.1l-.1 2.5 2.6-1.7h3.3l2.3 2.5-.1 2.5-.9.8v.8l.7.8h.8l1.1-3.3h1.7l.7 2.5-1.1 4.2-.4 6.6h.8l4.2-.8.8.8.8-.8 1.4 4.2h1.7l.1-1.7h2.5l.5 4.2-1.9 3.3.6 2.5h-6.6l-2.6 2.5-2.4-.8-.1 1.7h-.8l-.7-.8h-.8l-.4 5.8.2 10c-1.1 0-1.7 1.1-1.9 3.3l-.9.8h-.8l.3-4.2H168c-.3 4.4-1 6.6-2.1 6.6s-1.8-2.8-2-8.3h-.8l-.4 7.5h-.8c-1.1 0-1.5-3-1.1-9.1l-2.4-2.5 1.1-4.2.4-5.8L134 54l-5.6-2.5v-.8c.3-2.8.9-4.2 1.9-4.2.1-1.7-.7-2.5-2.3-2.5l1.1-4.2h-.8c3.8-6.5 8.3-12 13.5-16.6v.8l-10 12.5v.8h.8c1.4-3.9 6.8-10.3 16.1-19.1v.8l-5.4 6.6h.8c6.6-7.8 15.2-16.4 25.7-25.6zm-24.5 19.1v.8l-3.5 3.3v-.8l3.5-3.3zm7.1-7.5v.8l-6.2 5.8v-.8l6.2-5.8zm8.5 10.8c-.1 1.5-3.3 5.1-9.8 10.8l-3.6 4.2h.8c6.2-7.2 10.8-10.8 14-10.8l.1-2.5-1.5-1.7zm-10.1 15.8v.8h2.5l8.3-.8.6-9.1c-6.5 6-10.3 9.1-11.4 9.1zm10.5-35.7v.8l-5.3 5 .1-.8 5.2-5zm1.6 27.4l-.3 5h.8l.3-5h-.8zm.4-6.7l-.2 3.3 2.4.8.1-1.7-2.3-2.4z"/>
  </g>
</svg>